<?xml version="1.0" standalone="no"?>
<!DOCTYPE svg PUBLIC "-//W3C//DTD SVG 20010904//EN"
 "http://www.w3.org/TR/2001/REC-SVG-20010904/DTD/svg10.dtd">
<svg version="1.0" xmlns="http://www.w3.org/2000/svg"
 width="700pt" height="700pt" viewBox="0 0 700 700"
 preserveAspectRatio="xMidYMid meet">
<g transform="translate(0,700) scale(0.1,-0.1)"
fill="#ff0000" stroke="none">
<path d="M490 6010 c0 -48 366 -671 480 -818 88 -113 154 -169 282 -239 l93
-51 1672 -10 1672 -9 75 -43 c181 -103 287 -278 316 -519 19 -156 -16 -361
-87 -510 -61 -128 -207 -250 -324 -272 -30 -5 -258 -12 -506 -16 l-453 -6 0
567 0 566 -1220 0 c-671 0 -1220 -2 -1220 -5 0 -17 228 -410 325 -560 118
-183 207 -221 545 -231 96 -3 203 -7 238 -10 l63 -6 -3 -1251 -3 -1252 -34
-95 c-85 -240 -28 -447 163 -600 141 -112 277 -153 511 -153 177 -1 236 11
373 79 261 128 378 392 290 654 -21 63 -22 81 -26 611 l-3 546 413 7 c703 12
870 26 1064 91 392 131 693 385 911 767 99 175 187 433 213 623 19 138 24 391
11 550 -60 739 -564 1365 -1240 1541 -145 37 -382 43 -2351 54 -2239 12 -2240
12 -2240 0z"/>
</g>
</svg>
