<?xml version="1.0" standalone="no"?>
<!DOCTYPE svg PUBLIC "-//W3C//DTD SVG 20010904//EN"
 "http://www.w3.org/TR/2001/REC-SVG-20010904/DTD/svg10.dtd">
<svg version="1.0" xmlns="http://www.w3.org/2000/svg"
 width="760.000000pt" height="737.000000pt" viewBox="0 0 760.000000 737.000000"
 preserveAspectRatio="xMidYMid meet">
<metadata>
</metadata>
<g transform="translate(0.000000,737.000000) scale(0.100000,-0.100000)"
fill="#ff0000" stroke="none">
<path d="M3915 7354 c-166 -20 -388 -66 -530 -109 -224 -68 -452 -161 -514
-211 -84 -67 -93 -202 -18 -282 66 -71 136 -70 300 2 220 97 477 171 737 211
62 10 197 19 330 22 296 7 433 -8 792 -88 134 -30 235 58 226 197 -3 52 -9 70
-34 101 -17 21 -46 46 -65 55 -44 22 -225 63 -394 90 -175 27 -649 34 -830 12z"/>
<path d="M1015 7016 c-16 -8 -44 -29 -62 -47 -80 -86 -306 -421 -388 -574 -34
-64 -37 -76 -33 -136 3 -54 9 -73 32 -104 37 -49 105 -79 162 -72 72 8 108 38
171 145 84 144 169 272 271 410 72 98 92 132 98 168 7 51 -7 114 -37 156 -41
57 -147 84 -214 54z"/>
<path d="M5630 6979 c-55 -32 -84 -81 -88 -153 -3 -50 1 -69 21 -106 20 -39
42 -56 154 -125 246 -151 404 -277 599 -476 249 -257 428 -515 586 -847 93
-198 90 -193 136 -226 33 -23 51 -29 94 -29 83 0 141 39 173 115 31 76 24 107
-81 327 -272 567 -686 1050 -1190 1386 -186 123 -249 155 -314 155 -37 0 -66
-7 -90 -21z"/>
<path d="M2324 6679 c-65 -19 -340 -285 -493 -478 -346 -435 -575 -959 -656
-1504 -17 -108 -10 -157 27 -210 45 -62 157 -86 228 -48 62 33 86 81 110 221
103 625 390 1158 863 1604 81 77 140 141 146 159 6 16 11 52 11 79 0 129 -112
213 -236 177z"/>
<path d="M4351 6170 c-129 -29 -183 -205 -95 -310 39 -46 76 -60 182 -71 620
-62 1161 -457 1451 -1058 35 -72 54 -97 91 -116 95 -48 207 -9 251 90 38 82
19 148 -99 358 -335 591 -910 998 -1542 1090 -146 22 -200 25 -239 17z"/>
<path d="M3605 6066 c-264 -87 -535 -256 -741 -461 -341 -339 -542 -769 -583
-1246 -12 -137 -2 -187 47 -239 83 -86 211 -73 279 29 25 36 26 44 42 209 59
600 471 1122 1054 1337 70 26 100 43 124 70 92 105 46 278 -84 314 -51 14 -57
14 -138 -13z"/>
<path d="M330 5768 c-57 -29 -83 -69 -120 -185 -102 -318 -171 -670 -201
-1030 -15 -188 -7 -713 15 -888 20 -158 43 -299 57 -341 5 -17 24 -44 42 -62
101 -97 258 -56 298 79 11 34 8 69 -14 232 -39 276 -50 468 -44 722 11 414 74
793 193 1160 28 85 35 122 32 162 -11 134 -141 210 -258 151z"/>
<path d="M4317 4975 c-105 -37 -155 -158 -108 -260 23 -51 70 -92 119 -103 20
-5 60 -14 87 -21 89 -20 207 -86 283 -156 235 -218 325 -577 232 -923 -28
-103 -71 -192 -147 -305 -72 -108 -87 -160 -63 -231 26 -80 88 -126 170 -126
74 0 112 22 169 99 192 261 281 557 268 890 -10 265 -78 482 -217 689 -64 96
-202 236 -290 293 -177 116 -410 188 -503 154z"/>
<path d="M3683 4751 c-50 -13 -80 -37 -129 -104 -62 -83 -99 -158 -130 -264
-21 -73 -26 -109 -26 -208 -1 -143 17 -224 73 -343 79 -164 220 -276 382 -302
227 -36 467 143 467 348 0 84 -14 129 -59 189 -41 55 -107 93 -161 93 -51 -1
-113 -32 -146 -75 -23 -31 -29 -50 -32 -106 -5 -81 -19 -88 -75 -39 -57 50
-82 119 -82 230 0 87 3 100 32 160 18 36 48 86 67 113 40 55 53 115 37 175
-26 97 -124 156 -218 133z"/>
<path d="M7272 4669 c-53 -26 -93 -83 -99 -141 -3 -24 4 -97 16 -163 38 -223
46 -334 45 -610 0 -221 -4 -300 -22 -435 -40 -297 -109 -565 -214 -833 -45
-116 -50 -135 -46 -192 3 -49 10 -70 31 -99 68 -89 191 -98 269 -21 79 80 239
580 297 930 41 245 46 324 46 670 0 346 -4 402 -46 655 -28 168 -51 211 -132
245 -50 21 -94 19 -145 -6z"/>
<path d="M6182 4243 c-78 -38 -107 -117 -92 -250 32 -286 -7 -635 -105 -929
-101 -301 -250 -554 -471 -797 -109 -120 -124 -146 -124 -215 0 -85 39 -146
113 -177 70 -29 142 -12 206 48 62 59 206 232 278 333 344 485 509 1074 472
1684 -10 168 -19 208 -55 256 -45 61 -150 83 -222 47z"/>
<path d="M1276 4045 c-51 -18 -92 -59 -113 -113 -16 -41 -16 -52 1 -176 93
-722 413 -1371 907 -1840 131 -125 178 -156 238 -156 107 0 186 81 186 190 0
74 -28 118 -134 211 -242 212 -478 542 -621 868 -93 212 -174 495 -205 713
-27 196 -33 215 -73 257 -22 23 -53 43 -77 50 -50 14 -61 13 -109 -4z"/>
<path d="M2515 3705 c-81 -29 -134 -121 -119 -209 9 -56 74 -201 140 -313 357
-607 1012 -913 1666 -778 174 36 230 64 265 135 27 52 30 115 8 167 -20 48
-41 71 -87 94 -49 25 -88 24 -200 -6 -117 -31 -256 -43 -388 -33 -443 33 -854
350 -1041 801 -36 86 -76 130 -136 146 -48 14 -59 13 -108 -4z"/>
<path d="M354 2851 c-63 -39 -101 -118 -91 -192 11 -84 190 -485 312 -700 235
-413 564 -807 929 -1113 113 -95 139 -109 199 -109 82 0 140 39 172 115 42
102 10 169 -146 300 -470 394 -818 879 -1070 1486 -37 90 -75 172 -84 182 -46
51 -162 67 -221 31z"/>
<path d="M6694 1846 c-33 -15 -47 -30 -181 -205 -171 -222 -448 -488 -688
-657 -214 -152 -478 -294 -710 -384 -140 -54 -165 -69 -195 -121 -28 -51 -32
-138 -8 -184 34 -65 97 -105 164 -105 72 0 405 143 629 269 446 252 824 582
1134 989 93 122 111 158 111 219 0 28 -5 64 -11 80 -13 34 -55 80 -91 99 -34
18 -113 17 -154 0z"/>
<path d="M4828 1770 c-324 -153 -741 -230 -1090 -202 -253 21 -450 66 -677
154 -87 34 -112 40 -156 36 -104 -9 -173 -97 -162 -206 12 -115 64 -153 335
-242 625 -205 1314 -164 1913 113 140 65 191 135 175 240 -14 94 -75 149 -169
154 -57 4 -70 0 -169 -47z"/>
<path d="M2231 713 c-105 -52 -130 -206 -48 -300 68 -77 467 -236 816 -323
300 -75 365 -82 815 -87 568 -7 662 6 723 98 24 36 28 53 28 109 0 56 -4 73
-28 108 -15 24 -45 51 -70 63 l-42 22 -190 -18 c-252 -24 -623 -17 -830 15
-336 51 -625 137 -927 276 -129 59 -184 68 -247 37z"/>
</g>
</svg>
